<?xml version="1.0" encoding="utf-8"?>
<!-- Generator: Adobe Illustrator 27.5.0, SVG Export Plug-In . SVG Version: 6.00 Build 0)  -->
<svg version="1.1" xmlns="http://www.w3.org/2000/svg" xmlns:xlink="http://www.w3.org/1999/xlink" x="0px" y="0px"
	 viewBox="0 0 500 500" style="enable-background:new 0 0 500 500;" xml:space="preserve">
<g id="BACKGROUND">
	<rect id="XMLID_3_" style="fill:#FFFFFF;" width="500" height="500"/>
	<rect style="fill:#2E1A3B;" width="500" height="500"/>
</g>
<g id="OBJECTS">
	<g>
		<polygon style="fill:#261730;" points="399.277,224.785 393.425,340.934 412.772,343.724 422.709,228.864 		"/>
		<polygon style="fill:#422454;" points="371.198,335.147 373.56,225.447 399.277,224.785 393.425,340.934 		"/>
	</g>
	<g>
		<polygon style="fill:#4C2B61;" points="287.846,335.949 284.513,282.616 302.513,279.949 303.846,338.616 		"/>
		<polygon style="fill:#361F45;" points="302.513,279.949 356.513,280.616 356.513,302.616 406.513,308.616 402.513,343.949 
			303.846,338.616 		"/>
	</g>
	<g>
		<polygon style="fill:#361F45;" points="182.465,243.724 182.465,343.221 200.513,345.785 200.513,246.616 		"/>
		<polygon style="fill:#4C2B61;" points="148.024,243.724 150.878,294.596 72.513,310.281 78,346.045 182.465,343.221 
			182.465,243.724 		"/>
	</g>
	<path style="fill:#37782C;" d="M437.522,341.387c-122.314-18.104-313.171-9.271-375.043,6.419
		C186.719,364.504,314.803,367.803,437.522,341.387z"/>
	<path style="fill:#489C3A;" d="M96.833,344.667c49.555-7.925,216.088-13.481,296.592-1.683
		c-35.017,5.987-74.659,6.874-103.925,7.266C223.441,351.134,162.658,350.294,96.833,344.667z"/>
	<path style="fill:#DED4AA;" d="M159.301,289.539c-7.741-1.48-16.194-0.671-24.052-0.668c-9.144,0.003-18.748-0.818-27.82,0.371
		c-1.341,0.176-1.341,1.91,0,2.086c8.433,1.106,17.334,0.368,25.833,0.371c8.489,0.003,17.678,0.931,26.039-0.668
		C160.042,290.889,160.042,289.681,159.301,289.539z"/>
	<path style="fill:#DED4AA;" d="M167.017,324.358c-3.918-0.89-7.99-0.537-11.989-0.526c-5.215,0.014-10.43,0.023-15.645,0.033
		c-10.353,0.02-20.979-0.635-31.289,0.353c-1.373,0.132-1.373,2.001,0,2.133c9.671,0.927,19.623,0.331,29.333,0.349
		c5.215,0.01,10.43,0.017,15.644,0.031c4.608,0.013,9.429,0.505,13.944-0.521C167.937,326.003,167.937,324.567,167.017,324.358z"/>
	<path style="fill:#DED4AA;" d="M278.791,289.539c-8.763-1.48-18.333-0.671-27.229-0.668c-10.352,0.003-21.225-0.818-31.495,0.371
		c-1.518,0.176-1.518,1.91,0,2.086c9.548,1.106,19.624,0.368,29.246,0.371c9.61,0.003,20.013,0.931,29.479-0.668
		C279.63,290.889,279.63,289.681,278.791,289.539z"/>
	<path style="fill:#DED4AA;" d="M279.522,324.358c-3.918-0.89-7.99-0.537-11.989-0.526c-5.215,0.014-10.43,0.023-15.644,0.033
		c-10.353,0.02-20.979-0.635-31.289,0.353c-1.373,0.132-1.373,2.001,0,2.133c9.671,0.927,19.623,0.331,29.333,0.349
		c5.215,0.01,10.43,0.017,15.644,0.031c4.608,0.013,9.429,0.505,13.944-0.521C280.442,326.003,280.442,324.567,279.522,324.358z"/>
	<path style="fill:#DED4AA;" d="M278.791,254.636c-8.763-1.48-18.333-0.671-27.229-0.669c-10.352,0.003-21.225-0.818-31.495,0.371
		c-1.518,0.176-1.518,1.91,0,2.086c9.548,1.106,19.624,0.368,29.246,0.371c9.61,0.003,20.013,0.931,29.479-0.668
		C279.63,255.986,279.63,254.777,278.791,254.636z"/>
	<path style="fill:#F5EABC;" d="M222.078,300.376c-0.022-14.812,0.319-29.796-0.353-44.574c-0.107-2.365-2.143-2.365-2.25,0
		c-0.624,13.727-0.328,27.633-0.348,41.391c-0.022,14.804-0.586,29.877,0.582,44.575c0.149,1.869,1.633,1.869,1.781,0
		C222.578,328.095,222.098,314.145,222.078,300.376z"/>
	<path style="fill:#F5EABC;" d="M247.022,284.44c-0.022-20.328,0.319-40.893-0.353-61.174c-0.107-3.246-2.143-3.246-2.25,0
		c-0.624,18.838-0.328,37.924-0.348,56.805c-0.022,20.317-0.586,41.003,0.582,61.174c0.149,2.565,1.633,2.565,1.781,0
		C247.522,322.482,247.043,303.337,247.022,284.44z"/>
	<path style="fill:#F5EABC;" d="M280.356,297.351c-0.022-15.859,0.319-31.903-0.353-47.726c-0.107-2.532-2.142-2.532-2.25,0
		c-0.624,14.697-0.328,29.587-0.348,44.317c-0.022,15.851-0.586,31.989,0.582,47.726c0.149,2.001,1.633,2.001,1.781,0
		C280.856,327.03,280.376,312.094,280.356,297.351z"/>
	<path style="fill:#DED4AA;" d="M371.323,289.539c-7.741-1.48-16.194-0.671-24.052-0.668c-9.144,0.003-18.748-0.818-27.82,0.371
		c-1.341,0.176-1.341,1.91,0,2.086c8.434,1.106,17.334,0.368,25.833,0.371c8.489,0.003,17.678,0.931,26.039-0.668
		C372.064,290.889,372.064,289.681,371.323,289.539z"/>
	<path style="fill:#DED4AA;" d="M379.039,324.358c-3.918-0.89-7.99-0.537-11.989-0.526c-5.215,0.014-10.43,0.023-15.644,0.033
		c-10.353,0.02-20.979-0.635-31.289,0.353c-1.373,0.132-1.373,2.001,0,2.133c9.671,0.927,19.623,0.331,29.333,0.349
		c5.215,0.01,10.43,0.017,15.645,0.031c4.608,0.013,9.429,0.505,13.944-0.521C379.959,326.003,379.959,324.567,379.039,324.358z"/>
	<path style="fill:#F5EABC;" d="M321.595,320.62c-0.022-7.805,0.319-15.7-0.353-23.487c-0.108-1.246-2.143-1.246-2.25,0
		c-0.624,7.233-0.328,14.56-0.348,21.81c-0.022,7.801-0.586,15.743,0.582,23.487c0.149,0.985,1.633,0.985,1.781,0
		C322.095,335.226,321.615,327.875,321.595,320.62z"/>
	<path style="fill:#F5EABC;" d="M346.539,307.732c-0.022-12.266,0.319-24.675-0.353-36.913c-0.107-1.959-2.142-1.959-2.25,0
		c-0.624,11.367-0.328,22.883-0.348,34.276c-0.022,12.26-0.586,24.741,0.582,36.913c0.149,1.548,1.633,1.548,1.781,0
		C347.039,330.686,346.559,319.134,346.539,307.732z"/>
	<path style="fill:#F5EABC;" d="M379.873,329.302c-0.022-4.799,0.319-9.655-0.353-14.444c-0.108-0.766-2.143-0.766-2.25,0
		c-0.624,4.448-0.328,8.954-0.348,13.412c-0.022,4.797-0.586,9.681,0.582,14.444c0.149,0.605,1.633,0.605,1.781,0
		C380.373,338.284,379.893,333.764,379.873,329.302z"/>
	<g>
		
			<text transform="matrix(0.9912 0.1327 -0.1327 0.9912 207.3032 326.9896)" style="fill:#FF4F4F; font-family:'BuiltTitlingSb-Regular'; font-size:185px;">0</text>
	</g>
	<g>
		
			<text transform="matrix(1 0 0 1 312.8686 342.9839)" style="fill:#FF4F4F; font-family:'BuiltTitlingSb-Regular'; font-size:185px;">4</text>
	</g>
	<path style="fill:#F5EABC;" d="M109.573,320.62c-0.022-7.805,0.319-15.7-0.353-23.487c-0.107-1.246-2.143-1.246-2.25,0
		c-0.624,7.233-0.328,14.56-0.348,21.81c-0.022,7.801-0.586,15.743,0.582,23.487c0.149,0.985,1.633,0.985,1.781,0
		C110.073,335.226,109.593,327.875,109.573,320.62z"/>
	<path style="fill:#F5EABC;" d="M134.518,307.732c-0.022-12.266,0.319-24.675-0.353-36.913c-0.107-1.959-2.143-1.959-2.25,0
		c-0.624,11.367-0.328,22.883-0.348,34.276c-0.022,12.26-0.586,24.741,0.582,36.913c0.149,1.548,1.633,1.548,1.781,0
		C135.018,330.686,134.538,319.134,134.518,307.732z"/>
	<path style="fill:#F5EABC;" d="M167.851,329.302c-0.022-4.799,0.319-9.655-0.353-14.444c-0.107-0.766-2.143-0.766-2.25,0
		c-0.624,4.448-0.328,8.954-0.348,13.412c-0.022,4.797-0.586,9.681,0.582,14.444c0.149,0.605,1.633,0.605,1.781,0
		C168.351,338.284,167.871,333.764,167.851,329.302z"/>
	<g>
		
			<text transform="matrix(1 0 0 1 101.0355 342.9839)" style="fill:#FF4F4F; font-family:'BuiltTitlingSb-Regular'; font-size:185px;">4</text>
	</g>
	<path style="fill:#37782C;" d="M402.259,340.287c0.744-3.439,1.487-6.878,2.231-10.317c-1.701,1.872-3.335,3.711-4.804,5.77
		c0.954-6.514,0.613-13.215-0.997-19.599c-1.38,5.837-1.935,11.893-1.678,17.885c-0.924-2.49-2.943-4.551-5.413-5.526
		c2.087,3.638,3.733,7.529,4.889,11.561C398.122,340.152,400.625,340.195,402.259,340.287z"/>
	<path style="fill:#37782C;" d="M191.399,333.911c0.09-3.036,1.851-5.911,3.48-8.846c-2.26,0.895-4.085,2.826-4.852,5.133
		c0.181-5.814-0.058-11.64-0.712-17.42c-1.554,5.05-1.936,10.456-1.108,15.674c-0.863-1.843-2.344-3.391-4.149-4.332
		c1.441,3.631,2.066,6.381,1.814,10.438C187.035,334.646,190.237,333.823,191.399,333.911z"/>
	
		<text transform="matrix(1 0 0 1 136.4275 401.3005)" style="fill:#FFFFFF; font-family:'BuiltTitlingLt-Regular'; font-size:18px; letter-spacing:3;">error 404 - page not found</text>
	<path style="fill:#5A3673;" d="M94.741,213.872c-1.459-1.274-1.646-3.795-0.137-5.122c1.478-1.299,4.115-0.856,5.086,0.855
		c0.053-1.151,0.216-2.681,0.595-3.768c0.379-1.088,1.134-2.102,2.21-2.515c1.075-0.413,2.472-0.062,3.014,0.954
		c0.355-1.534,1.391-3.931,2.524-5.024s2.82-1.694,4.33-1.247c2.315,0.686,3.342,3.378,3.682,5.768
		c0.322,2.263,0.324,4.571,0.006,6.834c0.52-1.558,2.163-1.588,3.686-0.972c1.607,0.651,1.978,2.436,1.844,3.967
		c5.825,0.604,11.633-1.082,17.46-0.928c0.731,0.019,1.613,0.141,1.906,0.811c0.268,0.611-0.175,1.345-0.776,1.633
		c-5.082,2.441-11.957,1.427-17.455,1.787c-6.772,0.443-13.547,0.836-20.325,1.179c-5.053,0.256-10.107,0.485-15.163,0.683
		c-0.737,0.029-9.63,0.916-9.336-0.498c0.622-2.988,5.277-2.989,7.66-3.488C88.577,214.149,91.801,214.556,94.741,213.872z"/>
	<path style="opacity:0.1;fill:#E6E7E8;" d="M243.048,118.464L190.469,349.6c0,0,70.202,15.733,121.381,0.414l-28.904-227.785
		L243.048,118.464z"/>
	<path style="fill:#3D3D3D;" d="M320.034,118.792c-3.701,5.513-15.019,8.977-31.661,9.09c-17.602,0.12-46.668-3.293-61.911-6.294
		c-8.887-1.749-16.975-6.016-22.348-12.545C241.573,115.058,282.096,118.875,320.034,118.792z"/>
	<path style="fill:#4D4D4D;" d="M320.838,117.364c-0.512-13.007-114.979-23.004-117.05-9.305
		C203.988,119.018,320.23,128.608,320.838,117.364z"/>
	<path style="fill:#FFB133;" d="M288.171,111.045c-0.851-12.445-11.424-23.519-23.816-24.946
		c-12.392-1.427-25.205,6.954-28.863,18.88C242.789,115.558,279.693,119.492,288.171,111.045z"/>
	<path style="fill:#FFBE54;" d="M282.821,104.214c-1.415-3.77-3.746-7.069-6.736-9.755c-2.625-2.358-6.776-5.155-10.465-4.892
		c-1.116,0.08-1.381,1.664-0.544,2.261c1.327,0.946,2.976,1.475,4.424,2.218c1.507,0.773,2.884,1.824,4.16,2.929
		c2.695,2.335,4.7,5.36,5.948,8.685C280.406,107.787,283.617,106.335,282.821,104.214z"/>
	<path style="fill:#FFBE54;" d="M284.457,110.391c-0.034-0.596-0.232-1.179-0.395-1.724c-0.14-0.469-0.287-0.894-0.698-1.198
		c-0.324-0.239-0.826-0.347-1.206-0.179c-0.788,0.348-0.928,1.056-0.899,1.837c0.02,0.551,0.02,1.183,0.18,1.759
		c0.223,0.803,0.867,1.407,1.758,1.262C284.083,112.004,284.504,111.223,284.457,110.391z"/>
	<path style="fill:#FB5152;" d="M215.517,111.829c-3.164,0-3.164,4.906,0,4.906S218.681,111.829,215.517,111.829z"/>
	<path style="fill:#FB5152;" d="M226.184,114.538c-2.68,0-2.68,4.156,0,4.156C228.864,118.694,228.864,114.538,226.184,114.538z"/>
	<path style="fill:#FB5152;" d="M239.517,116.647c-2.539,0-2.539,3.938,0,3.938S242.057,116.647,239.517,116.647z"/>
	<path style="fill:#FB5152;" d="M251.184,118.428c-2.821,0-2.821,4.375,0,4.375S254.005,118.428,251.184,118.428z"/>
	<path style="fill:#FB5152;" d="M264.517,119.506c-2.72,0-2.72,4.219,0,4.219C267.238,123.725,267.238,119.506,264.517,119.506z"/>
	<path style="fill:#FB5152;" d="M280.076,121.928c-0.013-0.052-0.025-0.104-0.038-0.156c-0.449-1.839-3.257-1.839-3.706,0
		c-0.013,0.052-0.025,0.104-0.038,0.156c-0.301,1.234,0.588,2.483,1.891,2.483S280.377,123.161,280.076,121.928z"/>
	<path style="fill:#FB5152;" d="M290.851,120.522c-2.7,0-2.7,4.188,0,4.188C293.551,124.71,293.551,120.522,290.851,120.522z"/>
	<path style="fill:#FB5152;" d="M304.184,120.866c-2.257,0-2.257,3.5,0,3.5C306.441,124.366,306.441,120.866,304.184,120.866z"/>
	<path style="fill:#FB5152;" d="M314.184,118.642c-2.116,0-2.116,3.281,0,3.281C316.3,121.923,316.3,118.642,314.184,118.642z"/>
	<path style="opacity:0.1;fill:#E6E7E8;" d="M189.469,349.6c0,0,70.202,15.733,121.381,0.414c0,0-16.346-4.26-52.346-3.969
		C224.97,346.316,189.469,349.6,189.469,349.6z"/>
	<path style="fill:#F3FFDE;" d="M183.502,190.153l-1.163-0.636c-1.048-0.573-1.909-1.434-2.482-2.482l-0.636-1.162
		c-0.089-0.162-0.321-0.162-0.409,0l-0.636,1.162c-0.573,1.048-1.434,1.909-2.482,2.482l-1.163,0.636
		c-0.162,0.089-0.162,0.321,0,0.409l1.163,0.636c1.048,0.573,1.909,1.434,2.482,2.482l0.636,1.163c0.088,0.162,0.321,0.162,0.409,0
		l0.636-1.163c0.573-1.048,1.434-1.909,2.482-2.482l1.163-0.636C183.664,190.473,183.664,190.241,183.502,190.153z"/>
	<path style="fill:#F3FFDE;" d="M374.867,146.455l-1.163-0.636c-1.048-0.573-1.909-1.434-2.482-2.482l-0.636-1.163
		c-0.089-0.162-0.321-0.162-0.409,0l-0.636,1.163c-0.573,1.048-1.434,1.909-2.482,2.482l-1.163,0.636
		c-0.162,0.088-0.162,0.321,0,0.409l1.163,0.636c1.048,0.573,1.909,1.434,2.482,2.482l0.636,1.163c0.088,0.162,0.321,0.162,0.409,0
		l0.636-1.163c0.573-1.048,1.434-1.909,2.482-2.482l1.163-0.636C375.029,146.776,375.029,146.544,374.867,146.455z"/>
	<path style="fill:#F3FFDE;" d="M131.193,157.298l-0.96-0.525c-0.865-0.473-1.577-1.185-2.05-2.05l-0.525-0.96
		c-0.073-0.133-0.265-0.133-0.338,0l-0.525,0.96c-0.473,0.865-1.185,1.577-2.05,2.05l-0.96,0.525c-0.134,0.073-0.134,0.265,0,0.338
		l0.96,0.525c0.865,0.473,1.577,1.185,2.05,2.05l0.525,0.96c0.073,0.133,0.265,0.133,0.338,0l0.525-0.96
		c0.473-0.865,1.185-1.577,2.05-2.05l0.96-0.525C131.326,157.563,131.326,157.372,131.193,157.298z"/>
	<path style="fill:#F3FFDE;" d="M448.443,205.165l-0.96-0.525c-0.865-0.473-1.577-1.184-2.05-2.05l-0.525-0.96
		c-0.073-0.133-0.265-0.133-0.338,0l-0.525,0.96c-0.473,0.865-1.185,1.577-2.05,2.05l-0.96,0.525c-0.134,0.073-0.134,0.265,0,0.338
		l0.96,0.525c0.865,0.473,1.577,1.185,2.05,2.05l0.525,0.96c0.073,0.133,0.265,0.133,0.338,0l0.525-0.96
		c0.473-0.865,1.185-1.577,2.05-2.05l0.96-0.525C448.576,205.43,448.576,205.238,448.443,205.165z"/>
	<path style="fill:#F3FFDE;" d="M388.942,136.477l-0.96-0.525c-0.865-0.473-1.576-1.185-2.05-2.05l-0.525-0.96
		c-0.073-0.133-0.265-0.133-0.338,0l-0.525,0.96c-0.473,0.865-1.185,1.577-2.05,2.05l-0.96,0.525c-0.133,0.073-0.133,0.265,0,0.338
		l0.96,0.525c0.865,0.473,1.577,1.184,2.05,2.05l0.525,0.96c0.073,0.133,0.265,0.133,0.338,0l0.525-0.96
		c0.473-0.865,1.184-1.577,2.05-2.05l0.96-0.525C389.075,136.742,389.075,136.55,388.942,136.477z"/>
	<path style="fill:#F3FFDE;" d="M336.102,169.724l-0.526-0.288c-0.474-0.259-0.864-0.649-1.124-1.124l-0.288-0.526
		c-0.04-0.073-0.145-0.073-0.185,0l-0.288,0.526c-0.259,0.474-0.649,0.864-1.124,1.124l-0.526,0.288
		c-0.073,0.04-0.073,0.145,0,0.185l0.526,0.288c0.474,0.259,0.864,0.649,1.124,1.124l0.288,0.526c0.04,0.073,0.145,0.073,0.185,0
		l0.288-0.526c0.259-0.474,0.649-0.864,1.124-1.124l0.526-0.288C336.175,169.869,336.175,169.764,336.102,169.724z"/>
	<path style="fill:#F3FFDE;" d="M200.393,171.517l-0.526-0.288c-0.474-0.259-0.864-0.649-1.124-1.124l-0.288-0.526
		c-0.04-0.073-0.145-0.073-0.185,0l-0.288,0.526c-0.259,0.474-0.649,0.864-1.124,1.124l-0.526,0.288
		c-0.073,0.04-0.073,0.145,0,0.185l0.526,0.288c0.474,0.259,0.864,0.649,1.124,1.124l0.288,0.526c0.04,0.073,0.145,0.073,0.185,0
		l0.288-0.526c0.259-0.474,0.649-0.864,1.124-1.124l0.526-0.288C200.466,171.662,200.466,171.557,200.393,171.517z"/>
	<path style="fill:#F3FFDE;" d="M422.648,213.216l-0.526-0.288c-0.474-0.259-0.864-0.649-1.124-1.124l-0.288-0.526
		c-0.04-0.073-0.145-0.073-0.185,0l-0.288,0.526c-0.259,0.474-0.649,0.864-1.124,1.124l-0.526,0.288
		c-0.073,0.04-0.073,0.145,0,0.185l0.526,0.288c0.474,0.259,0.864,0.649,1.124,1.124l0.288,0.526c0.04,0.073,0.145,0.073,0.185,0
		l0.288-0.526c0.259-0.474,0.649-0.864,1.124-1.124l0.526-0.288C422.721,213.361,422.721,213.256,422.648,213.216z"/>
	<path style="fill:#F3FFDE;" d="M147.422,148.292l-0.526-0.288c-0.474-0.259-0.864-0.649-1.124-1.124l-0.288-0.526
		c-0.04-0.073-0.145-0.073-0.185,0l-0.288,0.526c-0.259,0.474-0.649,0.864-1.124,1.124l-0.526,0.288
		c-0.073,0.04-0.073,0.145,0,0.185l0.526,0.288c0.474,0.259,0.864,0.649,1.124,1.124l0.288,0.526c0.04,0.073,0.145,0.073,0.185,0
		l0.288-0.526c0.259-0.474,0.649-0.864,1.124-1.124l0.526-0.288C147.495,148.437,147.495,148.332,147.422,148.292z"/>
	<path style="fill:#FEC108;" d="M322.178,211.908c-1.974-1.178-4.11-1.848-6.257-2.05c3.102,4.65,3.46,10.857,0.404,15.977
		c-3.056,5.119-8.689,7.75-14.254,7.227c1.196,1.793,2.799,3.356,4.773,4.535c7.094,4.234,16.277,1.916,20.511-5.177
		C331.589,225.325,329.271,216.142,322.178,211.908z"/>
	<path style="fill:#5A3673;" d="M344.621,184.832c-1.733-0.245-3.473-0.551-5.224-0.931c-0.599-0.13-1.263-0.317-1.564-0.85
		c-0.333-0.591-0.042-1.378,0.478-1.815c0.519-0.437,1.206-0.608,1.867-0.76c1.889-0.432,25.599-3.822,25.668-3.395
		c-0.368-2.304-1.384-5.336,0.928-7.098c1.652-1.259,4.426-0.473,5.173,1.465c-0.117-2.468,1.755-5.716,3.301-7.643
		c1.546-1.927,4.257-3.021,6.591-2.214s3.805,3.788,2.632,5.962c-1.185-3.467,3.188-8.061,6.568-9.474
		c3.38-1.413,7.53-0.279,10.069,2.362c2.539,2.641,3.531,6.547,3.046,10.178c-0.435,3.254-2.114,6.132-3.697,8.902
		c4.346,0.932,8.824,0.561,13.224,0.904c2.96,0.234,6.173,0.916,8.142,2.988c-4.747,2.428-10.961,1.387-16.218,1.497
		c-11.977,0.252-23.915,0.389-35.826,0.675C361.188,185.793,352.979,186.016,344.621,184.832z"/>
</g>
<g id="DESIGNED_BY_FREEPIK">
	<g id="XMLID_94_">
		<g>
			<g id="XMLID_545_">
				<g>
					<g id="XMLID_581_">
						<path id="XMLID_603_" style="fill:#4C2B61;" d="M184.597,476.014c-0.246,0-0.434,0.085-0.567,0.255
							c-0.133,0.17-0.199,0.421-0.199,0.754v2.392c-0.305-0.331-0.617-0.578-0.938-0.739c-0.321-0.159-0.715-0.24-1.181-0.24
							c-0.807,0-1.458,0.283-1.953,0.848c-0.495,0.566-0.742,1.356-0.742,2.369c0,0.478,0.063,0.923,0.187,1.335
							c0.125,0.412,0.307,0.77,0.549,1.074c0.241,0.305,0.527,0.539,0.857,0.704c0.331,0.164,0.69,0.246,1.078,0.246
							c0.293,0,0.563-0.04,0.81-0.122c0.247-0.081,0.477-0.2,0.689-0.356c0.212-0.156,0.426-0.359,0.644-0.608v0.161
							c0,0.297,0.072,0.525,0.216,0.686c0.145,0.16,0.328,0.24,0.549,0.24c0.226,0,0.41-0.078,0.552-0.231
							c0.143-0.154,0.214-0.386,0.214-0.694v-7.147c0-0.305-0.066-0.535-0.199-0.691
							C185.031,476.092,184.843,476.014,184.597,476.014z M183.532,482.856c-0.14,0.306-0.328,0.534-0.564,0.682
							c-0.236,0.149-0.496,0.223-0.781,0.223c-0.281,0-0.54-0.079-0.778-0.236c-0.237-0.156-0.424-0.388-0.561-0.697
							c-0.136-0.309-0.205-0.682-0.205-1.122c0-0.416,0.064-0.781,0.193-1.096c0.128-0.315,0.309-0.556,0.543-0.724
							c0.234-0.168,0.499-0.252,0.796-0.252c0.285,0,0.547,0.082,0.786,0.245c0.24,0.165,0.429,0.402,0.57,0.712
							c0.141,0.311,0.21,0.682,0.21,1.114C183.742,482.165,183.673,482.549,183.532,482.856z"/>
						<path id="XMLID_600_" style="fill:#4C2B61;" d="M191.964,481.936c0.233-0.122,0.35-0.385,0.35-0.793
							c0-0.438-0.113-0.87-0.338-1.294c-0.225-0.423-0.565-0.769-1.019-1.035c-0.453-0.268-0.996-0.4-1.629-0.4
							c-0.487,0-0.93,0.078-1.33,0.234c-0.4,0.157-0.736,0.381-1.01,0.674c-0.273,0.293-0.48,0.644-0.623,1.054
							c-0.143,0.409-0.213,0.853-0.213,1.332c0,1.017,0.289,1.823,0.866,2.416c0.578,0.593,1.387,0.891,2.428,0.891
							c0.455,0,0.858-0.059,1.208-0.178c0.351-0.119,0.641-0.268,0.873-0.448c0.231-0.18,0.404-0.368,0.52-0.564
							c0.114-0.197,0.172-0.367,0.172-0.513c0-0.167-0.052-0.294-0.155-0.386c-0.102-0.091-0.237-0.137-0.403-0.137
							c-0.155,0-0.274,0.036-0.357,0.107c-0.202,0.19-0.366,0.341-0.493,0.452c-0.127,0.111-0.265,0.215-0.415,0.312
							c-0.151,0.098-0.306,0.168-0.466,0.214c-0.161,0.045-0.337,0.067-0.531,0.067c-0.289,0-0.553-0.07-0.793-0.213
							c-0.239-0.142-0.432-0.354-0.576-0.635c-0.145-0.281-0.219-0.605-0.223-0.973h3.17
							C191.402,482.117,191.731,482.056,191.964,481.936z M187.808,481.197c0.056-0.546,0.213-0.959,0.472-1.238
							c0.259-0.279,0.59-0.418,0.994-0.418c0.424,0,0.764,0.137,1.024,0.412c0.259,0.275,0.409,0.69,0.448,1.244H187.808z"/>
						<path id="XMLID_599_" style="fill:#4C2B61;" d="M197.392,481.499c-0.319-0.17-0.729-0.316-1.231-0.44
							c-0.424-0.103-0.756-0.19-0.997-0.261c-0.242-0.071-0.434-0.161-0.576-0.27c-0.142-0.109-0.213-0.248-0.213-0.419
							c0-0.186,0.097-0.341,0.291-0.465c0.194-0.126,0.437-0.187,0.73-0.187c0.285,0,0.511,0.047,0.677,0.142
							c0.167,0.095,0.31,0.222,0.433,0.38c0.15,0.19,0.284,0.332,0.401,0.427c0.117,0.096,0.258,0.143,0.424,0.143
							c0.23,0,0.407-0.061,0.532-0.178c0.124-0.119,0.186-0.272,0.186-0.457c0-0.171-0.058-0.345-0.175-0.523
							c-0.117-0.178-0.287-0.34-0.51-0.486c-0.223-0.146-0.503-0.264-0.837-0.35c-0.334-0.088-0.711-0.131-1.131-0.131
							c-0.534,0-0.99,0.086-1.367,0.259c-0.379,0.172-0.664,0.403-0.859,0.691c-0.194,0.289-0.291,0.596-0.291,0.92
							c0,0.364,0.105,0.671,0.315,0.921c0.21,0.249,0.49,0.45,0.84,0.602c0.35,0.152,0.804,0.298,1.362,0.436
							c0.495,0.119,0.85,0.244,1.066,0.375c0.216,0.131,0.324,0.337,0.324,0.623c0,0.186-0.104,0.351-0.311,0.496
							c-0.208,0.144-0.474,0.217-0.798,0.217c-0.4,0-0.716-0.071-0.947-0.214c-0.232-0.143-0.431-0.358-0.597-0.648
							c-0.082-0.15-0.17-0.267-0.261-0.35c-0.091-0.083-0.221-0.124-0.391-0.124c-0.194,0-0.355,0.063-0.481,0.19
							c-0.127,0.126-0.19,0.278-0.19,0.457c0,0.27,0.099,0.537,0.297,0.805c0.198,0.266,0.505,0.49,0.92,0.667
							c0.416,0.178,0.914,0.267,1.496,0.267c0.609,0,1.127-0.082,1.552-0.246c0.426-0.164,0.747-0.406,0.965-0.725
							c0.218-0.319,0.327-0.702,0.327-1.149c0-0.297-0.082-0.56-0.246-0.792C197.951,481.87,197.71,481.668,197.392,481.499z"/>
						<path id="XMLID_597_" style="fill:#4C2B61;" d="M200,478.424c-0.238,0-0.431,0.081-0.579,0.243
							c-0.149,0.162-0.222,0.404-0.222,0.724v4.636c0,0.317,0.074,0.56,0.222,0.73c0.148,0.17,0.341,0.255,0.579,0.255
							c0.238,0,0.433-0.083,0.588-0.249c0.155-0.166,0.232-0.412,0.232-0.737v-4.683c0-0.289-0.077-0.515-0.232-0.677
							C200.433,478.505,200.238,478.424,200,478.424z"/>
						<path id="XMLID_596_" style="fill:#4C2B61;" d="M200.018,476.085c-0.217,0-0.409,0.074-0.573,0.223
							c-0.164,0.149-0.246,0.337-0.246,0.567c0,0.254,0.08,0.45,0.24,0.588c0.16,0.139,0.353,0.208,0.579,0.208
							c0.218,0,0.406-0.071,0.564-0.211c0.158-0.14,0.238-0.335,0.238-0.585c0-0.258-0.081-0.453-0.244-0.588
							C200.414,476.152,200.228,476.085,200.018,476.085z"/>
						<path id="XMLID_593_" style="fill:#4C2B61;" d="M207.141,478.424c-0.218,0-0.396,0.078-0.535,0.231
							c-0.139,0.155-0.207,0.372-0.207,0.653v0.22c-0.289-0.376-0.602-0.652-0.938-0.829c-0.337-0.175-0.735-0.264-1.193-0.264
							c-0.384,0-0.736,0.068-1.057,0.204c-0.32,0.137-0.603,0.339-0.849,0.609c-0.245,0.269-0.434,0.599-0.567,0.992
							c-0.132,0.391-0.198,0.831-0.198,1.318c0,0.653,0.108,1.228,0.326,1.727c0.217,0.499,0.529,0.886,0.934,1.163
							c0.406,0.277,0.88,0.416,1.422,0.416c0.451,0,0.84-0.091,1.166-0.273c0.327-0.182,0.614-0.447,0.864-0.796
							c-0.008,0.531-0.02,0.915-0.035,1.155s-0.07,0.465-0.163,0.673c-0.093,0.21-0.255,0.374-0.487,0.49
							c-0.232,0.117-0.557,0.175-0.977,0.175c-0.205,0-0.388-0.02-0.546-0.056c-0.158-0.038-0.294-0.095-0.407-0.172
							c-0.112-0.077-0.216-0.17-0.309-0.28c-0.093-0.108-0.183-0.217-0.27-0.324c-0.178-0.209-0.386-0.314-0.624-0.314
							c-0.189,0-0.352,0.062-0.486,0.187c-0.135,0.124-0.202,0.286-0.202,0.483c0,0.261,0.119,0.516,0.357,0.763
							c0.238,0.247,0.576,0.449,1.015,0.605c0.439,0.156,0.938,0.234,1.496,0.234c0.61,0,1.119-0.061,1.529-0.184
							c0.409-0.122,0.741-0.311,0.994-0.563c0.254-0.253,0.438-0.574,0.552-0.961c0.115-0.388,0.173-0.851,0.173-1.39v-4.707
							c0-0.384-0.052-0.678-0.155-0.882C207.661,478.526,207.453,478.424,207.141,478.424z M206.114,482.79
							c-0.151,0.29-0.345,0.508-0.585,0.653c-0.239,0.144-0.493,0.217-0.762,0.217c-0.455,0-0.826-0.168-1.113-0.505
							c-0.287-0.336-0.43-0.833-0.43-1.49c0-0.649,0.139-1.15,0.418-1.501c0.279-0.352,0.649-0.529,1.113-0.529
							c0.475,0,0.858,0.184,1.149,0.552c0.291,0.367,0.436,0.883,0.436,1.543C206.339,482.146,206.264,482.499,206.114,482.79z"/>
						<path id="XMLID_592_" style="fill:#4C2B61;" d="M214.495,479.492c-0.165-0.339-0.417-0.603-0.753-0.789
							c-0.337-0.186-0.718-0.28-1.146-0.28c-0.439,0-0.828,0.089-1.166,0.264c-0.339,0.176-0.65,0.452-0.935,0.828v-0.196
							c0-0.193-0.035-0.358-0.104-0.493c-0.069-0.134-0.162-0.234-0.276-0.302c-0.115-0.068-0.244-0.101-0.387-0.101
							c-0.233,0-0.417,0.076-0.552,0.228c-0.135,0.152-0.202,0.383-0.202,0.692v4.683c0,0.317,0.075,0.56,0.225,0.73
							c0.151,0.17,0.342,0.255,0.576,0.255c0.241,0,0.438-0.082,0.59-0.246c0.152-0.164,0.228-0.411,0.228-0.74v-2.03
							c0-0.661,0.04-1.111,0.119-1.353c0.111-0.3,0.285-0.537,0.522-0.71c0.237-0.172,0.501-0.258,0.789-0.258
							c0.444,0,0.739,0.142,0.888,0.425c0.148,0.283,0.223,0.692,0.223,1.226v2.701c0,0.317,0.075,0.56,0.226,0.73
							c0.15,0.17,0.346,0.255,0.588,0.255c0.237,0,0.43-0.083,0.578-0.249c0.149-0.166,0.223-0.412,0.223-0.737v-3.015
							c0-0.356-0.017-0.649-0.048-0.879C214.671,479.905,214.602,479.69,214.495,479.492z"/>
						<path id="XMLID_589_" style="fill:#4C2B61;" d="M221.339,481.936c0.234-0.122,0.35-0.385,0.35-0.793
							c0-0.438-0.113-0.87-0.338-1.294c-0.226-0.423-0.565-0.769-1.019-1.035c-0.453-0.268-0.996-0.4-1.629-0.4
							c-0.487,0-0.93,0.078-1.33,0.234c-0.4,0.157-0.736,0.381-1.009,0.674c-0.273,0.293-0.481,0.644-0.624,1.054
							c-0.142,0.409-0.214,0.853-0.214,1.332c0,1.017,0.289,1.823,0.866,2.416c0.578,0.593,1.388,0.891,2.428,0.891
							c0.455,0,0.858-0.059,1.208-0.178c0.35-0.119,0.641-0.268,0.872-0.448c0.232-0.18,0.405-0.368,0.52-0.564
							c0.115-0.197,0.172-0.367,0.172-0.513c0-0.167-0.051-0.294-0.154-0.386c-0.103-0.091-0.238-0.137-0.404-0.137
							c-0.154,0-0.273,0.036-0.356,0.107c-0.202,0.19-0.366,0.341-0.492,0.452c-0.128,0.111-0.266,0.215-0.416,0.312
							c-0.151,0.098-0.306,0.168-0.466,0.214c-0.161,0.045-0.338,0.067-0.532,0.067c-0.289,0-0.553-0.07-0.792-0.213
							c-0.24-0.142-0.432-0.354-0.576-0.635c-0.145-0.281-0.218-0.605-0.223-0.973h3.169
							C220.777,482.117,221.106,482.056,221.339,481.936z M217.184,481.197c0.055-0.546,0.212-0.959,0.471-1.238
							c0.259-0.279,0.591-0.418,0.995-0.418c0.423,0,0.765,0.137,1.024,0.412c0.259,0.275,0.409,0.69,0.448,1.244H217.184z"/>
						<path id="XMLID_586_" style="fill:#4C2B61;" d="M227.726,476.014c-0.245,0-0.435,0.085-0.567,0.255
							c-0.133,0.17-0.199,0.421-0.199,0.754v2.392c-0.304-0.331-0.617-0.578-0.938-0.739c-0.32-0.159-0.714-0.24-1.181-0.24
							c-0.807,0-1.458,0.283-1.953,0.848c-0.495,0.566-0.742,1.356-0.742,2.369c0,0.478,0.062,0.923,0.187,1.335
							c0.125,0.412,0.307,0.77,0.549,1.074c0.242,0.305,0.527,0.539,0.858,0.704c0.33,0.164,0.689,0.246,1.077,0.246
							c0.293,0,0.563-0.04,0.81-0.122c0.247-0.081,0.477-0.2,0.688-0.356c0.212-0.156,0.426-0.359,0.644-0.608v0.161
							c0,0.297,0.072,0.525,0.217,0.686c0.145,0.16,0.328,0.24,0.549,0.24c0.226,0,0.41-0.078,0.552-0.231
							c0.143-0.154,0.214-0.386,0.214-0.694v-7.147c0-0.305-0.066-0.535-0.199-0.691
							C228.16,476.092,227.971,476.014,227.726,476.014z M226.66,482.856c-0.14,0.306-0.328,0.534-0.564,0.682
							c-0.235,0.149-0.495,0.223-0.781,0.223c-0.281,0-0.54-0.079-0.777-0.236c-0.238-0.156-0.425-0.388-0.562-0.697
							c-0.137-0.309-0.204-0.682-0.204-1.122c0-0.416,0.064-0.781,0.193-1.096c0.129-0.315,0.31-0.556,0.543-0.724
							c0.233-0.168,0.499-0.252,0.795-0.252c0.285,0,0.547,0.082,0.787,0.245c0.24,0.165,0.43,0.402,0.57,0.712
							c0.141,0.311,0.211,0.682,0.211,1.114C226.87,482.165,226.8,482.549,226.66,482.856z"/>
						<path id="XMLID_583_" style="fill:#4C2B61;" d="M237.107,478.818c-0.406-0.255-0.878-0.382-1.416-0.382
							c-0.467,0-0.859,0.084-1.176,0.252c-0.317,0.168-0.627,0.411-0.932,0.727v-2.475c0-0.297-0.067-0.525-0.202-0.686
							c-0.135-0.16-0.326-0.24-0.576-0.24c-0.237,0-0.423,0.084-0.555,0.252c-0.132,0.168-0.198,0.416-0.198,0.745v7.077
							c0,0.305,0.068,0.535,0.205,0.692c0.136,0.156,0.32,0.234,0.549,0.234c0.226,0,0.412-0.078,0.558-0.234
							c0.146-0.157,0.22-0.388,0.22-0.692v-0.161c0.178,0.206,0.322,0.361,0.431,0.463c0.109,0.103,0.241,0.203,0.395,0.3
							c0.154,0.098,0.341,0.175,0.561,0.234c0.219,0.06,0.454,0.089,0.703,0.089c0.407,0,0.78-0.082,1.119-0.246
							c0.338-0.164,0.626-0.397,0.864-0.698c0.237-0.3,0.418-0.656,0.543-1.065c0.125-0.41,0.187-0.859,0.187-1.35
							c0-0.665-0.112-1.241-0.336-1.725C237.826,479.444,237.512,479.075,237.107,478.818z M236.317,483.23
							c-0.294,0.355-0.646,0.532-1.053,0.532c-0.479,0-0.866-0.174-1.161-0.521c-0.295-0.346-0.442-0.841-0.442-1.486
							c0-0.44,0.069-0.819,0.208-1.137c0.139-0.319,0.329-0.562,0.57-0.73c0.241-0.168,0.517-0.252,0.825-0.252
							c0.301,0,0.564,0.084,0.79,0.252c0.225,0.168,0.399,0.406,0.522,0.715c0.123,0.308,0.184,0.677,0.184,1.104
							C236.759,482.368,236.611,482.875,236.317,483.23z"/>
						<path id="XMLID_582_" style="fill:#4C2B61;" d="M244.052,478.522c-0.113-0.066-0.23-0.098-0.353-0.098
							c-0.17,0-0.302,0.03-0.395,0.09c-0.093,0.059-0.181,0.173-0.264,0.344c-0.083,0.17-0.176,0.407-0.279,0.706l-1.3,3.71
							l-1.371-3.989c-0.091-0.277-0.195-0.489-0.314-0.638c-0.119-0.148-0.296-0.223-0.529-0.223c-0.135,0-0.264,0.035-0.389,0.107
							c-0.124,0.071-0.222,0.166-0.294,0.285c-0.071,0.118-0.107,0.247-0.107,0.385c0,0.131,0.062,0.341,0.184,0.629l1.995,5.022
							l-0.148,0.363c-0.111,0.265-0.209,0.466-0.294,0.602c-0.085,0.137-0.181,0.233-0.288,0.288
							c-0.107,0.056-0.254,0.084-0.44,0.084c-0.075,0-0.164-0.012-0.267-0.035c-0.083-0.024-0.168-0.037-0.256-0.037
							c-0.221,0-0.388,0.051-0.501,0.152c-0.114,0.101-0.169,0.245-0.169,0.43c0,0.273,0.118,0.461,0.356,0.565
							c0.237,0.103,0.593,0.154,1.068,0.154c0.487,0,0.873-0.074,1.161-0.223c0.287-0.148,0.517-0.361,0.691-0.638
							c0.174-0.277,0.352-0.659,0.535-1.145l2.113-5.533c0.051-0.142,0.094-0.283,0.13-0.421c0.036-0.139,0.061-0.246,0.077-0.321
							c0-0.123-0.031-0.239-0.092-0.35C244.251,478.675,244.164,478.587,244.052,478.522z"/>
					</g>
					<g id="XMLID_560_">
						<path id="XMLID_580_" style="fill:#4C2B61;" d="M266.456,476.01c-0.534,0-0.954,0.068-1.26,0.204
							c-0.307,0.137-0.527,0.354-0.654,0.653c-0.129,0.3-0.192,0.702-0.192,1.211v0.487h-0.386c-0.543,0-0.815,0.192-0.815,0.582
							c0,0.174,0.066,0.317,0.196,0.424c0.132,0.111,0.316,0.164,0.559,0.164h0.446v4.294c0,0.319,0.075,0.563,0.228,0.73
							c0.154,0.17,0.344,0.254,0.574,0.254c0.243,0,0.438-0.084,0.589-0.254c0.156-0.167,0.231-0.411,0.231-0.73v-4.294h0.395
							c0.291,0,0.517-0.035,0.681-0.107c0.166-0.071,0.245-0.241,0.245-0.503c0-0.374-0.306-0.56-0.926-0.56h-0.395v-0.386
							c0-0.322,0.043-0.568,0.122-0.74c0.087-0.172,0.273-0.259,0.566-0.259c0.107,0,0.241,0.014,0.389,0.035
							c0.156,0.026,0.267,0.037,0.33,0.037c0.134,0,0.252-0.054,0.348-0.16c0.101-0.107,0.15-0.236,0.15-0.385
							C267.877,476.239,267.406,476.01,266.456,476.01z"/>
						<path id="XMLID_579_" style="fill:#4C2B61;" d="M271.617,478.676c-0.32-0.171-0.648-0.255-0.991-0.255
							c-0.342,0-0.611,0.084-0.819,0.255c-0.203,0.171-0.4,0.421-0.593,0.755c-0.014-0.334-0.08-0.584-0.198-0.755
							c-0.119-0.171-0.313-0.255-0.583-0.255c-0.526,0-0.788,0.364-0.788,1.093v4.514c0,0.323,0.077,0.569,0.225,0.734
							c0.15,0.168,0.341,0.25,0.579,0.25c0.237,0,0.432-0.08,0.586-0.247c0.151-0.163,0.234-0.41,0.234-0.737v-1.355
							c0-0.487,0.014-0.9,0.045-1.238c0.034-0.337,0.09-0.631,0.17-0.878c0.083-0.243,0.201-0.426,0.353-0.554
							c0.15-0.122,0.345-0.186,0.582-0.186c0.172,0,0.374,0.037,0.602,0.108c0.226,0.073,0.371,0.112,0.433,0.112
							c0.158,0,0.304-0.064,0.441-0.195c0.135-0.126,0.204-0.292,0.204-0.488C272.099,479.074,271.939,478.847,271.617,478.676z"/>
						<path id="XMLID_576_" style="fill:#4C2B61;" d="M277.704,481.934c0.233-0.122,0.351-0.386,0.351-0.791
							c0-0.441-0.113-0.871-0.339-1.296c-0.222-0.424-0.566-0.77-1.018-1.034c-0.453-0.27-0.997-0.403-1.629-0.403
							c-0.488,0-0.931,0.078-1.33,0.234c-0.402,0.156-0.736,0.38-1.008,0.674c-0.276,0.295-0.484,0.643-0.624,1.055
							c-0.144,0.41-0.217,0.855-0.217,1.334c0,1.016,0.292,1.823,0.87,2.418c0.577,0.593,1.385,0.889,2.429,0.889
							c0.454,0,0.858-0.06,1.207-0.179c0.349-0.117,0.64-0.268,0.874-0.446c0.233-0.181,0.405-0.368,0.522-0.566
							c0.112-0.195,0.167-0.365,0.167-0.512c0-0.167-0.048-0.294-0.152-0.386c-0.105-0.092-0.238-0.138-0.406-0.138
							c-0.153,0-0.271,0.038-0.355,0.109c-0.202,0.189-0.367,0.34-0.494,0.449c-0.128,0.113-0.264,0.217-0.415,0.313
							c-0.15,0.097-0.307,0.17-0.466,0.213c-0.16,0.049-0.337,0.069-0.531,0.069c-0.29,0-0.552-0.07-0.793-0.212
							c-0.241-0.144-0.431-0.357-0.578-0.635c-0.144-0.28-0.216-0.607-0.221-0.974h3.171
							C277.143,482.115,277.471,482.055,277.704,481.934z M273.549,481.194c0.054-0.546,0.213-0.957,0.472-1.236
							c0.259-0.281,0.591-0.418,0.995-0.418c0.426,0,0.764,0.136,1.025,0.413c0.26,0.273,0.407,0.688,0.446,1.241H273.549z"/>
						<path id="XMLID_573_" style="fill:#4C2B61;" d="M283.444,478.813c-0.46-0.27-1.003-0.403-1.633-0.403
							c-0.487,0-0.932,0.078-1.331,0.234c-0.401,0.156-0.737,0.38-1.009,0.674c-0.273,0.295-0.481,0.643-0.622,1.055
							c-0.145,0.41-0.217,0.855-0.217,1.334c0,1.016,0.291,1.823,0.868,2.418c0.58,0.593,1.387,0.889,2.429,0.889
							c0.454,0,0.861-0.06,1.209-0.179c0.347-0.117,0.641-0.268,0.872-0.446c0.234-0.181,0.408-0.368,0.519-0.566
							c0.117-0.195,0.171-0.365,0.171-0.512c0-0.167-0.047-0.294-0.15-0.386c-0.104-0.092-0.239-0.138-0.406-0.138
							c-0.151,0-0.271,0.038-0.355,0.109c-0.203,0.189-0.368,0.34-0.493,0.449c-0.128,0.113-0.264,0.217-0.415,0.313
							c-0.153,0.097-0.307,0.17-0.469,0.213c-0.158,0.049-0.336,0.069-0.528,0.069c-0.291,0-0.555-0.07-0.795-0.212
							c-0.239-0.144-0.431-0.357-0.576-0.635c-0.143-0.28-0.218-0.607-0.222-0.974h3.171c0.422,0,0.75-0.06,0.984-0.181
							c0.231-0.122,0.351-0.386,0.351-0.791c0-0.441-0.116-0.871-0.341-1.296C284.235,479.423,283.893,479.077,283.444,478.813z
							 M280.291,481.194c0.053-0.546,0.211-0.957,0.469-1.236c0.261-0.281,0.592-0.418,0.996-0.418c0.426,0,0.764,0.136,1.027,0.413
							c0.257,0.273,0.407,0.688,0.447,1.241H280.291z"/>
						<path id="XMLID_570_" style="fill:#4C2B61;" d="M290.458,478.818c-0.42-0.256-0.883-0.386-1.38-0.386
							c-0.415,0-0.79,0.089-1.114,0.267c-0.331,0.176-0.649,0.452-0.953,0.828v-0.194c0-0.297-0.071-0.519-0.218-0.678
							c-0.143-0.156-0.329-0.234-0.56-0.234c-0.233,0-0.419,0.078-0.553,0.228c-0.134,0.155-0.2,0.383-0.2,0.692v6.996
							c0,0.355,0.051,0.62,0.146,0.807c0.102,0.183,0.301,0.275,0.607,0.275c0.518,0,0.778-0.359,0.778-1.069v-2.433
							c0.287,0.358,0.587,0.633,0.901,0.816c0.313,0.187,0.704,0.279,1.166,0.279c0.385,0,0.741-0.076,1.08-0.227
							c0.334-0.153,0.622-0.372,0.868-0.654c0.245-0.283,0.441-0.632,0.58-1.05c0.14-0.419,0.21-0.878,0.21-1.376
							c0-0.677-0.123-1.261-0.366-1.758C291.207,479.453,290.877,479.077,290.458,478.818z M289.982,482.822
							c-0.137,0.313-0.32,0.546-0.552,0.704c-0.229,0.154-0.48,0.233-0.748,0.233c-0.454,0-0.828-0.178-1.133-0.537
							c-0.307-0.358-0.46-0.862-0.46-1.504c0-0.686,0.154-1.204,0.462-1.558c0.306-0.35,0.684-0.527,1.13-0.527
							c0.281,0,0.541,0.084,0.77,0.248c0.229,0.163,0.411,0.397,0.541,0.705c0.13,0.306,0.197,0.674,0.197,1.102
							C290.189,482.13,290.12,482.508,289.982,482.822z"/>
						<path id="XMLID_569_" style="fill:#4C2B61;" d="M293.432,478.421c-0.238,0-0.428,0.079-0.58,0.245
							c-0.146,0.162-0.222,0.403-0.222,0.721v4.642c0,0.313,0.076,0.556,0.222,0.729c0.152,0.17,0.342,0.254,0.58,0.254
							c0.238,0,0.432-0.082,0.588-0.25c0.154-0.165,0.231-0.41,0.231-0.732v-4.689c0-0.286-0.077-0.513-0.231-0.675
							C293.864,478.5,293.67,478.421,293.432,478.421z"/>
						<path id="XMLID_568_" style="fill:#4C2B61;" d="M293.449,476.081c-0.217,0-0.408,0.076-0.571,0.222
							c-0.166,0.15-0.248,0.339-0.248,0.569c0,0.253,0.08,0.446,0.242,0.585c0.159,0.138,0.35,0.209,0.577,0.209
							c0.22,0,0.408-0.071,0.566-0.21c0.157-0.14,0.236-0.335,0.236-0.585c0-0.258-0.082-0.455-0.244-0.591
							C293.846,476.147,293.661,476.081,293.449,476.081z"/>
						<path id="XMLID_567_" style="fill:#4C2B61;" d="M300.791,483.451l-1.662-2.614l0.861-0.789
							c0.438-0.396,0.659-0.714,0.659-0.951c0-0.192-0.068-0.355-0.2-0.483c-0.139-0.128-0.306-0.193-0.51-0.193
							c-0.169,0-0.313,0.043-0.431,0.13c-0.121,0.086-0.29,0.251-0.517,0.487l-1.823,1.914v-3.933c0-0.33-0.074-0.582-0.221-0.751
							c-0.148-0.172-0.344-0.257-0.593-0.257c-0.255,0-0.456,0.092-0.596,0.283c-0.135,0.189-0.207,0.463-0.207,0.821v6.915
							c0,0.323,0.073,0.569,0.215,0.734c0.141,0.168,0.339,0.25,0.588,0.25c0.213,0,0.406-0.084,0.566-0.254
							c0.165-0.167,0.248-0.406,0.248-0.718v-1.291l0.88-0.83l1.428,2.354c0.181,0.278,0.33,0.472,0.436,0.58
							c0.106,0.109,0.261,0.16,0.458,0.16c0.226,0,0.413-0.073,0.554-0.221c0.141-0.151,0.213-0.352,0.213-0.61
							c0-0.089-0.029-0.189-0.081-0.289C301.003,483.791,300.912,483.647,300.791,483.451z"/>
						<path id="XMLID_566_" style="fill:#4C2B61;" d="M302.983,483.225c-0.25,0-0.458,0.087-0.63,0.262
							c-0.17,0.173-0.256,0.381-0.256,0.622c0,0.287,0.09,0.51,0.268,0.665c0.179,0.159,0.389,0.238,0.634,0.238
							c0.237,0,0.444-0.079,0.624-0.241c0.174-0.158,0.264-0.38,0.264-0.662c0-0.243-0.089-0.454-0.264-0.626
							C303.443,483.312,303.232,483.225,302.983,483.225z"/>
						<path id="XMLID_565_" style="fill:#4C2B61;" d="M310.37,482.298c-0.167,0-0.308,0.054-0.422,0.156
							c-0.113,0.104-0.219,0.245-0.318,0.427c-0.178,0.31-0.382,0.538-0.617,0.689c-0.231,0.15-0.51,0.225-0.835,0.225
							c-0.239,0-0.462-0.045-0.665-0.141c-0.201-0.093-0.372-0.229-0.516-0.409c-0.144-0.18-0.252-0.398-0.325-0.653
							c-0.075-0.255-0.114-0.537-0.114-0.842c0-0.646,0.147-1.161,0.44-1.534c0.293-0.375,0.682-0.561,1.158-0.561
							c0.333,0,0.607,0.074,0.821,0.226c0.219,0.148,0.424,0.375,0.622,0.674c0.109,0.158,0.209,0.269,0.299,0.339
							c0.09,0.068,0.201,0.104,0.338,0.104c0.202,0,0.377-0.068,0.524-0.203c0.144-0.135,0.214-0.3,0.214-0.492
							c0-0.192-0.063-0.397-0.192-0.617c-0.128-0.218-0.314-0.424-0.556-0.62c-0.245-0.192-0.54-0.352-0.891-0.474
							c-0.353-0.123-0.737-0.184-1.158-0.184c-0.674,0-1.259,0.138-1.746,0.419c-0.486,0.279-0.859,0.674-1.113,1.184
							c-0.259,0.511-0.387,1.098-0.387,1.765c0,0.981,0.281,1.765,0.841,2.35c0.562,0.582,1.345,0.876,2.349,0.876
							c0.469,0,0.894-0.065,1.269-0.192c0.377-0.126,0.688-0.295,0.934-0.502c0.248-0.208,0.434-0.425,0.554-0.656
							c0.121-0.229,0.182-0.446,0.182-0.646c0-0.169-0.066-0.331-0.198-0.481C310.733,482.375,310.568,482.298,310.37,482.298z"/>
						<path id="XMLID_562_" style="fill:#4C2B61;" d="M317.183,479.334c-0.288-0.29-0.629-0.517-1.027-0.674
							c-0.4-0.16-0.847-0.239-1.337-0.239c-0.482,0-0.923,0.078-1.326,0.234c-0.398,0.158-0.737,0.38-1.019,0.669
							c-0.281,0.288-0.498,0.637-0.649,1.046c-0.147,0.408-0.224,0.857-0.224,1.349c0,0.485,0.076,0.93,0.219,1.332
							c0.152,0.402,0.369,0.75,0.657,1.048c0.284,0.292,0.627,0.521,1.016,0.676c0.392,0.159,0.835,0.239,1.326,0.239
							c0.493,0,0.937-0.08,1.337-0.234c0.394-0.157,0.735-0.382,1.02-0.675c0.286-0.291,0.502-0.642,0.656-1.049
							c0.146-0.409,0.222-0.856,0.222-1.337c0-0.489-0.075-0.932-0.221-1.339C317.685,479.977,317.469,479.631,317.183,479.334z
							 M315.991,483.251c-0.289,0.372-0.681,0.557-1.171,0.557c-0.323,0-0.604-0.086-0.845-0.253
							c-0.24-0.168-0.423-0.41-0.553-0.729c-0.129-0.316-0.193-0.684-0.193-1.108c0-0.428,0.066-0.803,0.197-1.124
							c0.13-0.322,0.314-0.564,0.556-0.728c0.242-0.164,0.522-0.246,0.839-0.246c0.49,0,0.882,0.182,1.171,0.555
							c0.29,0.367,0.436,0.881,0.436,1.543C316.427,482.369,316.28,482.881,315.991,483.251z"/>
						<path id="XMLID_561_" style="fill:#4C2B61;" d="M327.107,478.694c-0.32-0.173-0.705-0.262-1.146-0.262
							c-0.381,0-0.726,0.081-1.039,0.241c-0.313,0.161-0.607,0.408-0.881,0.738c-0.192-0.326-0.431-0.572-0.725-0.735
							c-0.292-0.162-0.642-0.244-1.049-0.244c-0.394,0-0.748,0.079-1.07,0.241c-0.319,0.156-0.62,0.403-0.903,0.738v-0.153
							c0-0.261-0.074-0.466-0.221-0.615c-0.15-0.145-0.335-0.222-0.557-0.222c-0.227,0-0.413,0.078-0.556,0.239
							c-0.14,0.157-0.209,0.389-0.209,0.695v4.637c0,0.336,0.078,0.591,0.235,0.765c0.156,0.171,0.357,0.258,0.604,0.258
							c0.248,0,0.447-0.087,0.603-0.258c0.15-0.173,0.226-0.428,0.226-0.765v-2.189c0-0.684,0.087-1.207,0.254-1.567
							c0.169-0.369,0.516-0.551,1.048-0.551c0.264,0,0.459,0.073,0.582,0.22c0.122,0.142,0.198,0.331,0.227,0.552
							c0.027,0.226,0.04,0.544,0.04,0.953v2.582c0,0.342,0.078,0.594,0.233,0.767c0.148,0.17,0.349,0.255,0.594,0.255
							c0.254,0,0.455-0.085,0.611-0.255c0.156-0.173,0.231-0.425,0.231-0.767v-2.154c0-0.694,0.062-1.178,0.178-1.452
							c0.109-0.21,0.259-0.384,0.45-0.508c0.192-0.126,0.395-0.192,0.609-0.192c0.264,0,0.463,0.073,0.596,0.215
							c0.129,0.142,0.21,0.318,0.239,0.529c0.029,0.209,0.043,0.487,0.043,0.836v2.726c0,0.336,0.079,0.591,0.235,0.765
							c0.157,0.171,0.356,0.258,0.603,0.258c0.253,0,0.458-0.085,0.612-0.255c0.153-0.173,0.23-0.425,0.23-0.767v-3.164
							c0-0.629-0.068-1.09-0.206-1.385C327.665,479.119,327.426,478.868,327.107,478.694z"/>
					</g>
					<g id="XMLID_546_">
						<path id="XMLID_559_" style="fill:#4C2B61;" d="M248.796,481.326c-0.001-0.003-0.001-0.006-0.001-0.011
							C248.795,481.319,248.795,481.322,248.796,481.326z"/>
						<path id="XMLID_558_" style="fill:#4C2B61;" d="M248.878,481.844c0.001,0,0.001,0,0.001,0
							c-0.031-0.148-0.055-0.294-0.074-0.439C248.824,481.551,248.849,481.698,248.878,481.844z"/>
						<path id="XMLID_557_" style="fill:#4C2B61;" d="M249.414,483.348c-0.004-0.006-0.007-0.013-0.011-0.021
							C249.408,483.334,249.411,483.341,249.414,483.348z"/>
						<path id="XMLID_556_" style="fill:#4C2B61;" d="M249.363,483.248c-0.014-0.027-0.027-0.056-0.041-0.084
							C249.336,483.193,249.349,483.22,249.363,483.248z"/>
						<path id="XMLID_555_" style="fill:#4C2B61;" d="M249.029,482.423c0.079,0.25,0.175,0.493,0.286,0.724
							c-0.113-0.236-0.206-0.479-0.283-0.724H249.029z"/>
						<path id="XMLID_554_" style="fill:#4C2B61;" d="M254.26,474.562l-0.076-0.259c0.299-0.063,0.524-0.329,0.524-0.646
							c0-0.364-0.296-0.658-0.661-0.658c-0.364,0-0.66,0.295-0.66,0.658c0,0.317,0.224,0.583,0.523,0.646l0.084,0.289
							c-1.021,0.14-1.834,0.539-1.834,0.539l0.144,0.441c0.618-0.206,1.154-0.331,1.64-0.383c0.476-0.051,0.834-0.073,1.127-0.073
							c0.313,0,0.544,0.025,0.809,0.07l0.075-0.477C255.954,474.708,255.222,474.483,254.26,474.562z"/>
						<path id="XMLID_553_" style="fill:#4C2B61;" d="M248.976,477.069c-0.017,0.024-0.497,0.465-0.876,1.28
							c-0.016-0.026-0.035-0.05-0.056-0.074c-0.113-0.124-0.272-0.187-0.474-0.184c-0.003,0-0.006,0-0.009,0
							c-0.125,0-0.211-0.042-0.267-0.092c0.056-0.071,0.089-0.16,0.089-0.258c0-0.23-0.187-0.418-0.418-0.418
							c-0.23,0-0.418,0.188-0.418,0.418c0,0.231,0.187,0.418,0.418,0.418c0.036,0,0.071-0.006,0.104-0.013
							c0.103,0.114,0.266,0.214,0.505,0.209c0.123-0.001,0.213,0.03,0.273,0.097c0.069,0.076,0.093,0.185,0.1,0.267
							c-0.001,0.001-0.001,0.003-0.002,0.003c-0.272,0.743-0.194,1.669-0.194,1.669l0.661,0.026
							c0.013-0.337,0.062-0.926,0.232-1.394c0.329-0.906,0.741-1.472,0.758-1.496l0.004-0.005c0.024-0.031,0.047-0.06,0.071-0.089
							l-0.196-0.141L248.976,477.069z"/>
						<path id="XMLID_552_" style="fill:#4C2B61;" d="M260.819,475.668c-0.23,0-0.418,0.187-0.418,0.418
							c0,0.036,0.006,0.07,0.015,0.103c-0.115,0.104-0.214,0.267-0.211,0.507c0.002,0.123-0.03,0.212-0.096,0.273
							c-0.053,0.047-0.12,0.072-0.185,0.088c-0.492-0.689-1.097-1.109-1.097-1.109l-0.474,0.508c0.358,0.326,0.724,0.734,1.08,1.244
							c0.246,0.352,0.499,0.806,0.71,1.259l0.64-0.304c0,0-0.292-0.722-0.704-1.37c0.071-0.025,0.143-0.064,0.207-0.12
							c0.125-0.113,0.187-0.273,0.183-0.473c-0.001-0.13,0.042-0.218,0.093-0.276c0.071,0.054,0.16,0.089,0.258,0.089
							c0.232,0,0.419-0.187,0.419-0.418C261.238,475.854,261.051,475.668,260.819,475.668z"/>
						<path id="XMLID_551_" style="fill:#4C2B61;" d="M259.158,481.419c-0.881,0.429-2.33,0.996-4.238,1.262
							c-0.749,0.104-1.475,0.142-2.143,0.142c-0.869,0-1.637-0.065-2.227-0.139c-0.673-0.085-1.198-0.189-1.52-0.261
							c0.077,0.245,0.171,0.488,0.283,0.724c0.002,0.006,0.005,0.013,0.008,0.017c0.013,0.027,0.027,0.056,0.041,0.084
							c0.013,0.027,0.027,0.054,0.041,0.079c0.004,0.007,0.007,0.015,0.011,0.021c0.189,0.357,0.417,0.684,0.675,0.968
							c0.9,0.984,1.817,1.14,1.826,1.141l0.014,0.002l0.013,0.005c0.008,0.003,0.821,0.265,2.057,0.265
							c1.216,0,2.409-0.245,3.546-0.729c0.842-0.431,1.639-1.085,2.034-1.669c0.305-0.452,0.526-0.933,0.656-1.434
							c0.07-0.266,0.125-0.692,0.092-1.141C260.081,480.923,259.689,481.161,259.158,481.419z"/>
						<path id="XMLID_547_" style="fill:#4C2B61;" d="M255.846,475.536c-0.265-0.043-0.477-0.068-0.777-0.068
							c-0.28,0-0.626,0.022-1.09,0.071c-0.464,0.048-0.982,0.17-1.583,0.372c-0.842,0.282-1.605,0.724-2.204,1.28l-0.02,0.019
							c-0.089,0.082-0.274,0.254-0.488,0.526c-0.026,0.037-0.408,0.578-0.71,1.408c-0.226,0.622-0.216,1.527-0.216,1.538v0.002
							c0,0.212,0.012,0.423,0.035,0.632c0,0.005,0,0.008,0.001,0.011c0.002,0.027,0.007,0.053,0.009,0.079
							c0.019,0.145,0.043,0.291,0.074,0.439c0.438,0.111,3.049,0.72,5.968,0.314c1.829-0.255,3.218-0.795,4.062-1.204
							c0.701-0.34,1.151-0.648,1.325-0.774c-0.173-0.643-0.651-1.65-1.089-2.279C257.892,476.109,256.54,475.65,255.846,475.536z
							 M252.202,480.795c-0.972,0-1.76-0.787-1.76-1.759c0-0.972,0.788-1.761,1.76-1.761c0.973,0,1.761,0.789,1.761,1.761
							C253.963,480.008,253.175,480.795,252.202,480.795z M257.353,479.498c-0.601,0-1.089-0.489-1.089-1.09
							c0-0.601,0.488-1.09,1.089-1.09c0.601,0,1.09,0.488,1.09,1.09C258.443,479.009,257.954,479.498,257.353,479.498z"/>
					</g>
				</g>
			</g>
		</g>
	</g>
</g>
</svg>
